HIERARCHY
ROOT Hips
{
	OFFSET 0.000000 0.000000 0.000000
	CHANNELS 6 Xposition Yposition Zposition Zrotation Yrotation Xrotation 
	JOINT LeftUpLeg_virtual
	{
		OFFSET 0.000000 0.000000 0.000000
		CHANNELS 3 Zrotation Yrotation Xrotation
		JOINT LeftUpLeg
		{
			OFFSET 10.205400 -3.823500 0.155100
			CHANNELS 3 Zrotation Yrotation Xrotation
			JOINT LeftLeg
			{
				OFFSET 0.708757 -12.982077 0.567790
				CHANNELS 3 Zrotation Yrotation Xrotation
				JOINT LeftFoot
				{
					OFFSET -0.708756 -10.717838 -2.184338
					CHANNELS 3 Zrotation Yrotation Xrotation
					JOINT LeftToeBase
					{
						OFFSET 0.108149 -7.191104 7.560241
						CHANNELS 3 Zrotation Yrotation Xrotation
						End Site
						{
							OFFSET 0.000000 0.000000 0.000000
						}
					}
				}
			}
		}
	}
	JOINT RightUpLeg_virtual
	{
		OFFSET 0.000000 0.000000 0.000000
		CHANNELS 3 Zrotation Yrotation Xrotation
		JOINT RightUpLeg
		{
			OFFSET -10.205400 -3.823500 0.005500
			CHANNELS 3 Zrotation Yrotation Xrotation
			JOINT RightLeg
			{
				OFFSET -0.708756 -12.982134 0.610632
				CHANNELS 3 Zrotation Yrotation Xrotation
				JOINT RightFoot
				{
					OFFSET 0.708754 -10.717769 -1.945823
					CHANNELS 3 Zrotation Yrotation Xrotation
					JOINT RightToeBase
					{
						OFFSET -0.108140 -7.191069 7.372968
						CHANNELS 3 Zrotation Yrotation Xrotation
						End Site
						{
							OFFSET 0.000000 0.000000 0.000000
						}
					}
				}
			}
		}
	}
	JOINT Spine_virtual
	{
		OFFSET 0.000000 0.000000 0.000000
		CHANNELS 3 Zrotation Yrotation Xrotation
		JOINT Spine
		{
			OFFSET 0.000000 6.876099 0.125700
			CHANNELS 3 Zrotation Yrotation Xrotation
			JOINT Spine1
			{
				OFFSET 0.000000 8.022060 0.146608
				CHANNELS 3 Zrotation Yrotation Xrotation
				JOINT Spine2
				{
					OFFSET 0.000000 9.168068 0.167552
					CHANNELS 3 Zrotation Yrotation Xrotation
					JOINT Neck_virtual
					{
						OFFSET 0.000000 0.000000 0.000000
						CHANNELS 3 Zrotation Yrotation Xrotation
						JOINT Neck
						{
							OFFSET 0.000000 10.314075 0.188496
							CHANNELS 3 Zrotation Yrotation Xrotation
							JOINT Head
							{
								OFFSET 0.000000 7.643700 -2.377400
								CHANNELS 3 Zrotation Yrotation Xrotation
								End Site
								{
									OFFSET 0.000000 0.000000 0.000000
								}
							}
						}
					}
					JOINT LeftShoulder_virtual
					{
						OFFSET 0.000000 0.000000 0.000000
						CHANNELS 3 Zrotation Yrotation Xrotation
						JOINT LeftShoulder
						{
							OFFSET 4.392200 8.824978 0.174984
							CHANNELS 3 Zrotation Yrotation Xrotation
							JOINT LeftArm
							{
								OFFSET 8.771219 -2.981674 -0.026999
								CHANNELS 3 Zrotation Yrotation Xrotation
								JOINT LeftForeArm
								{
									OFFSET 8.512804 0.000000 -0.000000
									CHANNELS 3 Zrotation Yrotation Xrotation
									JOINT LeftHand
									{
										OFFSET 18.484802 0.000000 -0.000000
										CHANNELS 3 Zrotation Yrotation Xrotation
										End Site
										{
											OFFSET 0.000000 0.000000 0.000000
										}
									}
								}
							}
						}
					}
					JOINT RightShoulder_virtual
					{
						OFFSET 0.000000 0.000000 0.000000
						CHANNELS 3 Zrotation Yrotation Xrotation
						JOINT RightShoulder
						{
							OFFSET -4.392200 8.824993 0.141379
							CHANNELS 3 Zrotation Yrotation Xrotation
							JOINT RightArm
							{
								OFFSET -8.771282 -2.981682 -0.094208
								CHANNELS 3 Zrotation Yrotation Xrotation
								JOINT RightForeArm
								{
									OFFSET -8.494598 0.000000 0.000000
									CHANNELS 3 Zrotation Yrotation Xrotation
									JOINT RightHand
									{
										OFFSET -18.483803 0.000000 0.000001
										CHANNELS 3 Zrotation Yrotation Xrotation
										End Site
										{
											OFFSET 0.000000 0.000000 0.000000
										}
									}
								}
							}
						}
					}
				}
			}
		}
	}
}
MOTION
Frames: 5
Frame Time: 0.033333
-0.944366 36.539604 -10.051382 -179.436255 -87.786714 -179.688740 -3.654149 -4.889947 29.531279 -4.040056 14.000576 -30.594442 12.016855 5.799450 11.774146 -1.473220 0.449695 14.325395 0.000000 0.000000 0.000000 0.137108 -5.049114 29.164785 10.046641 2.238072 -33.654828 -2.026856 -0.050736 11.602838 6.665913 -1.181523 9.800786 0.000000 0.000000 0.000000 -0.700227 -2.249131 26.837495 -0.908725 3.341015 -0.377701 0.037947 -2.420304 8.932153 0.022875 0.098287 0.100906 0.126917 -1.250000 10.063239 -0.973374 -4.917922 9.425110 0.000000 0.000000 0.000000 1.015407 -0.274315 5.900345 -11.266740 -13.931592 7.178466 -24.204273 -6.259120 16.398333 -4.792661 -62.195586 7.796794 0.000000 0.000000 0.000000 -2.269268 0.830271 5.530844 20.534387 15.116597 8.463560 25.795461 4.379380 24.276010 -9.859197 56.923022 -5.973995 0.000000 0.000000 0.000000 
-1.096923 36.563560 -10.013200 -177.027725 -87.636771 177.973543 -3.442748 -4.997002 30.136485 -4.538707 14.164349 -31.270921 12.041574 5.907108 11.982927 -1.601876 0.882301 14.753661 0.000000 0.000000 0.000000 0.453025 -5.115242 29.662487 9.510739 2.411036 -33.978320 -1.924804 0.102677 11.432913 6.597026 -1.190884 9.810418 0.000000 0.000000 0.000000 -0.371504 -2.475833 27.500719 -1.076032 3.287874 -0.005453 0.023811 -2.354129 8.984439 -0.000548 0.149232 0.085670 0.183116 -1.078420 10.217435 -0.964267 -5.031061 9.097517 0.000000 0.000000 0.000000 1.076263 -0.172426 5.915830 -11.474724 -14.015254 7.358865 -24.432471 -6.330714 15.713127 -4.950187 -61.994472 8.111826 0.000000 0.000000 0.000000 -2.229648 0.971138 5.676675 20.293370 15.256506 8.489237 25.455565 4.478727 23.957090 -9.782719 56.782194 -5.966541 0.000000 0.000000 0.000000 
-1.294921 36.598518 -9.963790 -172.773296 -87.777275 173.889827 -3.136668 -4.945856 30.644737 -4.970930 14.167027 -32.389928 12.118983 5.941594 12.889393 -1.797360 1.262184 14.916740 0.000000 0.000000 0.000000 0.905236 -5.113217 30.088735 8.895315 2.560786 -34.144163 -1.855651 0.133784 11.196163 6.439750 -1.322181 9.748015 0.000000 0.000000 0.000000 0.083053 -2.487273 27.985134 -1.135772 3.213528 0.211583 -0.003185 -2.341387 9.017549 -0.027518 0.183117 0.137162 0.187125 -1.238282 10.422303 -1.059594 -5.340148 8.835867 0.000000 0.000000 0.000000 1.140331 -0.201328 5.990781 -11.700675 -14.191214 7.361233 -24.680513 -6.556517 15.313301 -4.852215 -61.629685 8.132660 0.000000 0.000000 0.000000 -2.232147 0.949507 5.828963 20.092929 15.347623 8.512195 25.220525 4.594893 23.709185 -9.607875 56.629010 -5.884172 0.000000 0.000000 0.000000 
-1.524189 36.640522 -9.902884 -163.829846 -88.146173 165.192155 -2.802744 -4.791475 31.078788 -5.319264 14.020154 -33.769179 12.235182 5.945743 13.918667 -2.034572 1.574648 15.216825 0.000000 0.000000 0.000000 1.505479 -4.934516 30.415198 8.181017 2.616400 -34.163783 -1.881609 -0.036427 11.020208 6.191863 -1.516386 9.508137 0.000000 0.000000 0.000000 0.644467 -2.397690 28.209325 -1.260424 3.156608 0.260309 -0.012736 -2.360165 9.082746 -0.029986 0.208160 0.157091 0.183762 -1.365485 10.674740 -1.158741 -5.340027 8.515012 0.000000 0.000000 0.000000 1.161670 -0.253681 6.221504 -11.941251 -14.364738 7.462952 -24.838601 -6.953760 15.005734 -4.752662 -60.924010 8.144359 0.000000 0.000000 0.000000 -2.231388 0.918195 6.051980 20.064671 15.472726 8.569061 25.182986 4.739825 23.430800 -9.449093 56.278611 -5.817133 0.000000 0.000000 0.000000 
-1.790087 36.677532 -9.832986 -154.145731 -88.475176 155.665871 -2.579673 -4.457176 31.583447 -5.481717 13.676514 -35.465890 12.461030 5.886945 15.701328 -2.216677 1.755000 15.345015 0.000000 0.000000 0.000000 2.042720 -4.588822 30.657027 7.465625 2.617111 -34.031564 -1.847202 -0.312553 11.111325 6.053593 -1.738881 9.164314 0.000000 0.000000 0.000000 1.002012 -2.158130 28.254474 -1.365509 3.416197 0.215162 0.006850 -2.393666 9.171984 0.002661 0.194012 0.126586 0.167349 -1.278039 10.920838 -1.215864 -5.416788 8.139337 0.000000 0.000000 0.000000 1.068238 -0.431531 6.524265 -12.061743 -14.621355 7.517772 -25.189017 -7.585918 14.876261 -4.879260 -60.019700 8.345254 0.000000 0.000000 0.000000 -2.304909 0.699476 6.325435 20.280898 15.596115 8.725331 25.368549 4.897655 23.106016 -9.467860 55.774792 -5.911325 0.000000 0.000000 0.000000 
